# xmcd
#
# Track frame offsets:
#	150
#	11414
#	28297
#	39120
#	52403
#	63439
#	75442
#	85854
#	95582
#	105774
#	116699
#	128567
#	137540
#	151865
#	162236
#	172921
#
# Disc length: 2480 seconds
#
# Revision: 1
# Processed by: cddbd v1.5.2PL0 Copyright (c) Steve Scherf et al.
# Submitted via: audiograbber 1.83.01
#
DISCID=b909ae10
DTITLE=Freddy Quinn - So schön war die Zeit... CD2
DYEAR=2007
DGENRE=Schlager
TTITLE0=Jambalaya
TTITLE1=Help me make it through the night
TTITLE2=Tom Dooley
TTITLE3=Home on the Range
TTITLE4=Some broken hearts never mend
TTITLE5=Old Smokey
TTITLE6=Die schönste Frau von Texas
TTITLE7=Oh Susanna, Du Rose der Prärie
TTITLE8=Gehen wir noch mal den Wag nach Westen
TTITLE9=Es war einmal ein treuer Husar
TTITLE10=Es wollt ein Mädel früh aufstehn
TTITLE11=Freut euch des Lebens
TTITLE12=Mädel ruck ruck ruck
TTITLE13=Kein schöner Land
TTITLE14=Weiß Du, wieviel Sternlein stehn?
TTITLE15=Muss i denn, muss i denn
EXTD=
EXTT0=
EXTT1=
EXTT2=
EXTT3=
EXTT4=
EXTT5=
EXTT6=
EXTT7=
EXTT8=
EXTT9=
EXTT10=
EXTT11=
EXTT12=
EXTT13=
EXTT14=
EXTT15=
PLAYORDER=
